<?xml version="1.0" encoding="UTF-8"?>
<svg id="Layer_2" data-name="Layer 2" xmlns="http://www.w3.org/2000/svg" width="461.24" height="465.84" viewBox="0 0 461.24 465.84">
  <defs>
    <style>
      .cls-1 {
        fill: none;
        stroke: #000;
        stroke-miterlimit: 10;
        stroke-width: 22px;
      }
    </style>
  </defs>
  <g id="Layer_1-2" data-name="Layer 1">
    <g>
      <g>
        <path d="M20.54,35.9c-7.78-7.78-11.58-17.94-8.45-22.59s12.06-2.08,19.84,5.7l408.76,408.76c7.78,7.78,11.57,17.94,8.44,22.58s-12.07,2.07-19.85-5.71L20.54,35.9Z"/>
        <path class="cls-1" d="M20.54,35.9c-7.78-7.78-11.58-17.94-8.45-22.59s12.06-2.08,19.84,5.7l408.76,408.76c7.78,7.78,11.57,17.94,8.44,22.58s-12.07,2.07-19.85-5.71L20.54,35.9Z"/>
      </g>
      <g>
        <path d="M30.48,444.7c-7.81,7.75-15.8,11.97-17.76,9.38s-.76-15.79,7.02-23.56L428.5,21.75c7.78-7.78,15.97-11.74,18.21-8.79s1.74,17.04-6.06,24.78L30.48,444.7Z"/>
        <path class="cls-1" d="M30.48,444.7c-7.81,7.75-15.8,11.97-17.76,9.38s-.76-15.79,7.02-23.56L428.5,21.75c7.78-7.78,15.97-11.74,18.21-8.79s1.74,17.04-6.06,24.78L30.48,444.7Z"/>
      </g>
    </g>
  </g>
</svg>