<?xml version="1.0" encoding="UTF-8"?>
<svg id="Layer_2" data-name="Layer 2" xmlns="http://www.w3.org/2000/svg" width="617.17" height="590.23" viewBox="0 0 617.17 590.23">
  <defs>
    <style>
      .cls-1 {
        fill: none;
        stroke: #000;
        stroke-miterlimit: 10;
        stroke-width: 22px;
      }
    </style>
  </defs>
  <g id="Layer_1-2" data-name="Layer 1">
    <g>
      <path d="M30.59,263.03c-6.16-9.11-14.17-13.6-17.79-9.98s-1.59,14.07,4.52,23.22l197.8,296.1c6.11,9.15,16.11,9.15,22.22,0L601.24,27.63c6.11-9.15,6.61-16.63,1.11-16.63s-15.04,7.45-21.21,16.57l-343.71,508.12c-6.16,9.11-16.25,9.11-22.41,0L30.59,263.03Z"/>
      <path class="cls-1" d="M30.59,263.03c-6.16-9.11-14.17-13.6-17.79-9.98s-1.59,14.07,4.52,23.22l197.8,296.1c6.11,9.15,16.11,9.15,22.22,0L601.24,27.63c6.11-9.15,6.61-16.63,1.11-16.63s-15.04,7.45-21.21,16.57l-343.71,508.12c-6.16,9.11-16.25,9.11-22.41,0L30.59,263.03Z"/>
    </g>
  </g>
</svg>