<?xml version="1.0" encoding="UTF-8"?>
<svg id="Layer_2" data-name="Layer 2" xmlns="http://www.w3.org/2000/svg" width="782.88" height="665.35" viewBox="0 0 782.88 665.35">
  <defs>
    <style>
      .cls-1, .cls-2 {
        stroke: #000;
        stroke-miterlimit: 10;
        stroke-width: 23px;
      }

      .cls-2 {
        fill: none;
      }
    </style>
  </defs>
  <g id="Layer_1-2" data-name="Layer 1">
    <g>
      <g>
        <polygon class="cls-1" points="362.31 84.86 390.81 56.8 419.63 85.61 390.97 113.52 362.31 84.86"/>
        <g>
          <path d="M380.33,646.99c6.11,9.15,16.11,9.15,22.22,0L766.45,102.24c6.11-9.15,6.61-16.63,1.11-16.63s-15.04,7.45-21.21,16.57l-343.71,508.12c-6.16,9.11-16.25,9.11-22.41,0L36.53,102.18c-6.16-9.11-15.71-16.57-21.21-16.57s-5,7.48,1.11,16.63l363.9,544.74Z"/>
          <path class="cls-2" d="M380.33,646.99c6.11,9.15,16.11,9.15,22.22,0L766.45,102.24c6.11-9.15,6.61-16.63,1.11-16.63s-15.04,7.45-21.21,16.57l-343.71,508.12c-6.16,9.11-16.25,9.11-22.41,0L36.53,102.18c-6.16-9.11-15.71-16.57-21.21-16.57s-5,7.48,1.11,16.63l363.9,544.74Z"/>
        </g>
      </g>
      <polygon class="cls-1" points="390.72 16.2 321.01 85.91 390.43 156.98 461.5 85.91 390.72 16.2"/>
    </g>
  </g>
</svg>