<?xml version="1.0" encoding="UTF-8"?>
<svg id="Layer_2" data-name="Layer 2" xmlns="http://www.w3.org/2000/svg" width="782.34" height="1158.8" viewBox="0 0 782.34 1158.8">
  <defs>
    <style>
      .cls-1, .cls-2 {
        stroke: #000;
        stroke-miterlimit: 10;
        stroke-width: 23px;
      }

      .cls-2 {
        fill: none;
      }
    </style>
  </defs>
  <g id="Layer_1-2" data-name="Layer 1">
    <g>
      <polygon class="cls-1" points="390.7 509.06 321 578.77 390.41 649.84 461.49 578.77 390.7 509.06"/>
      <g>
        <path d="M391.24,1139.08c0,10.11,5,10.89,11.11,1.75l363.9-544.74c6.11-9.15,6.11-24.11,0-33.26L402.35,18.08c-6.11-9.15-11.11-8.7-11.11,1s5.03,25.09,11.18,34.21l343.75,509.59c6.15,9.12,6.14,24.03-.02,33.15l-343.71,508.12c-6.16,9.11-11.21,24.84-11.21,34.94Z"/>
        <path class="cls-2" d="M391.24,1139.08c0,10.11,5,10.89,11.11,1.75l363.9-544.74c6.11-9.15,6.11-24.11,0-33.26L402.35,18.08c-6.11-9.15-11.11-8.7-11.11,1s5.03,25.09,11.18,34.21l343.75,509.59c6.15,9.12,6.14,24.03-.02,33.15l-343.71,508.12c-6.16,9.11-11.21,24.84-11.21,34.94Z"/>
      </g>
      <g>
        <path d="M391.1,1139.18c0,10.11-5,10.89-11.11,1.75L16.08,596.18c-6.11-9.15-6.11-24.11,0-33.26L379.99,18.18c6.11-9.15,11.11-8.7,11.11,1s-5.03,25.09-11.18,34.21L36.16,562.97c-6.15,9.12-6.14,24.03.02,33.15l343.71,508.12c6.16,9.11,11.21,24.84,11.21,34.94Z"/>
        <path class="cls-2" d="M391.1,1139.18c0,10.11-5,10.89-11.11,1.75L16.08,596.18c-6.11-9.15-6.11-24.11,0-33.26L379.99,18.18c6.11-9.15,11.11-8.7,11.11,1s-5.03,25.09-11.18,34.21L36.16,562.97c-6.15,9.12-6.14,24.03.02,33.15l343.71,508.12c6.16,9.11,11.21,24.84,11.21,34.94Z"/>
      </g>
    </g>
  </g>
</svg>