<?xml version="1.0" encoding="UTF-8"?>
<svg id="Layer_2" data-name="Layer 2" xmlns="http://www.w3.org/2000/svg" width="4178.83" height="1160.39" viewBox="0 0 4178.83 1160.39">
  <defs>
    <style>
      .cls-1 {
        stroke-width: .5px;
      }

      .cls-1, .cls-2, .cls-3 {
        fill: #fff;
      }

      .cls-1, .cls-3 {
        stroke: #fff;
        stroke-miterlimit: 10;
      }

      .cls-3 {
        stroke-width: 20px;
      }
    </style>
  </defs>
  <g id="Layer_1-2" data-name="Layer 1">
    <g>
      <g>
        <g>
          <path class="cls-2" d="M756.56,580.74c-5.59,0-15.18-7.49-21.39-16.69L391.42,54.46c-6.19-9.18-11.23-24.59-11.23-34.35,0-5.05,1.33-7.82,3.75-7.82,2.16,0,4.94,2.38,7.82,6.69l363.9,544.74c4.28,6.41,5.97,12.21,4.4,15.14-.66,1.23-1.87,1.88-3.5,1.88Z"/>
          <path class="cls-2" d="M383.94,12.54c1.99,0,4.67,2.18,7.61,6.58l363.9,544.74c6.11,9.15,6.61,16.63,1.11,16.63-5.5,0-15.03-7.46-21.18-16.58L391.63,54.32c-6.15-9.12-11.18-24.51-11.18-34.21,0-5.03,1.35-7.57,3.5-7.57M383.94,12.04c-1.49,0-4,1.05-4,8.07,0,9.8,5.06,25.28,11.27,34.49l343.75,509.59c6.25,9.26,15.94,16.8,21.6,16.8,1.73,0,3.02-.69,3.72-2.01,1.61-3.01-.08-8.91-4.41-15.4L391.97,18.84c-2.97-4.45-5.75-6.8-8.03-6.8h0Z"/>
        </g>
        <g>
          <path class="cls-2" d="M376.77,1148.49c-2.14,0-4.85-2.3-7.65-6.49L5.22,597.26c-4.28-6.41-5.97-12.21-4.4-15.14.66-1.23,1.87-1.87,3.5-1.87,5.59,0,15.19,7.48,21.41,16.68l343.71,508.12c6.2,9.17,11.25,24.91,11.25,35.08,0,5.32-1.43,8.37-3.92,8.37Z"/>
          <path class="cls-2" d="M4.32,580.49c5.5,0,15.04,7.45,21.21,16.57l343.71,508.12c6.16,9.11,11.21,24.84,11.21,34.94,0,5.39-1.42,8.12-3.67,8.12-1.97,0-4.59-2.11-7.44-6.38L5.43,597.12c-6.11-9.15-6.61-16.63-1.11-16.63M4.32,579.99c-1.73,0-3.02.69-3.72,2.01-1.61,3.01.08,8.91,4.41,15.4l363.9,544.74c2.88,4.32,5.6,6.6,7.86,6.6,1.56,0,4.17-1.12,4.17-8.62,0-10.22-5.07-26.02-11.29-35.22L25.94,596.78c-6.26-9.26-15.96-16.79-21.62-16.79h0Z"/>
        </g>
        <polygon class="cls-3" points="352.06 580.49 380.56 552.42 409.38 581.24 380.72 609.15 352.06 580.49"/>
      </g>
      <g>
        <polygon class="cls-3" points="1284.05 579.78 1312.55 551.71 1341.37 580.53 1312.71 608.44 1284.05 579.78"/>
        <path class="cls-1" d="M926.31,1148.85c0,14.73,20,15.37,20,0V10.89c0-14.27-20-14.11-20,0"/>
        <path class="cls-1" d="M1678.55,1148.85c0,14.73,20,15.37,20,0V10.89c0-14.27-20-14.11-20,0"/>
      </g>
      <g>
        <polygon class="cls-3" points="2216.04 584.66 2244.54 556.6 2273.36 585.41 2244.7 613.32 2216.04 584.66"/>
        <g>
          <path class="cls-2" d="M2620.54,1153.98c-5.65,0-10.25-9.08-10.25-20.25v-529.06c0-10.99-5-27.33-11.14-36.44l-343.75-509.59c-2.93-4.34-6.83-6.73-10.98-6.73s-8.05,2.39-10.98,6.73l-343.75,509.59c-6.14,9.11-11.14,25.46-11.14,36.44v529.06c0,11.17-4.6,20.25-10.25,20.25s-10.25-9.08-10.25-20.25v-529.06c0-11.07,5-27.56,11.15-36.77L2233.1,23.15c3-4.5,7.02-6.97,11.32-6.97s8.31,2.48,11.32,6.97l363.9,544.74c6.15,9.2,11.15,25.7,11.15,36.77v529.06c0,11.17-4.6,20.25-10.25,20.25Z"/>
          <path class="cls-2" d="M2244.42,16.43c4.03,0,8.05,2.29,11.11,6.86l363.9,544.74c6.11,9.15,11.11,25.63,11.11,36.63v529.06c0,11-4.5,20-10,20s-10-9-10-20v-529.06c0-11-5.03-27.46-11.18-36.58l-343.75-509.59c-3.08-4.56-7.13-6.84-11.18-6.84s-8.11,2.28-11.18,6.84l-343.75,509.59c-6.15,9.12-11.18,25.58-11.18,36.58v529.06c0,11-4.5,20-10,20s-10-9-10-20v-529.06c0-11,5-27.48,11.11-36.63L2233.31,23.29c3.06-4.57,7.08-6.86,11.11-6.86M2244.42,15.93c-4.38,0-8.47,2.52-11.53,7.08l-363.9,544.74c-6.17,9.24-11.19,25.8-11.19,36.91v529.06c0,11.3,4.71,20.5,10.5,20.5s10.5-9.2,10.5-20.5v-529.06c0-10.94,4.98-27.23,11.1-36.3l343.75-509.59c2.88-4.27,6.7-6.62,10.77-6.62s7.89,2.35,10.77,6.62l343.75,509.59c6.12,9.07,11.1,25.36,11.1,36.3v529.06c0,11.3,4.71,20.5,10.5,20.5s10.5-9.2,10.5-20.5v-529.06c0-11.11-5.02-27.67-11.19-36.91L2255.95,23.01c-3.05-4.57-7.14-7.08-11.53-7.08h0Z"/>
        </g>
      </g>
      <g>
        <polygon class="cls-3" points="3056.56 584.2 3085.06 556.13 3113.88 584.95 3085.22 612.86 3056.56 584.2"/>
        <g>
          <path class="cls-2" d="M2708.82,1153.51c-5.65,0-10.25-9.08-10.25-20.25v-529.06c0-11.07,5.01-27.56,11.16-36.76L3073.61,23.51c3.01-4.49,7.03-6.97,11.33-6.97s8.32,2.47,11.33,6.97l363.88,543.93c6.18,9.24,6.19,24.29.01,33.53l-121.13,181.33c-6.06,9.08-4.72,22.74,3,30.46l298.01,298.01c7.84,7.84,14.22,20.61,14.22,28.46,0,3.87-1.61,6.08-4.4,6.08s-6.36-2.1-10.17-5.91l-322.43-322.43c-7.88-7.88-11.68-18.15-8.47-22.89l130.86-193.45c6.13-9.06,6.14-23.8.02-32.87l-343.75-509.59c-2.93-4.34-6.83-6.73-10.98-6.73s-8.05,2.39-10.98,6.73l-343.75,509.59c-6.14,9.11-11.14,25.46-11.14,36.44v529.06c0,11.17-4.6,20.25-10.25,20.25Z"/>
          <path class="cls-2" d="M3084.94,16.79c4.03,0,8.06,2.29,11.12,6.86l363.88,543.93c6.12,9.14,6.12,24.11.01,33.25l-121.13,181.33c-6.11,9.15-4.75,22.99,3.03,30.77l298.01,298.01c7.78,7.78,14.14,20.51,14.14,28.28,0,3.89-1.59,5.83-4.15,5.83s-6.1-1.94-9.99-5.83l-322.43-322.43c-7.78-7.78-11.57-17.94-8.44-22.58,3.14-4.64,10.75-15.89,16.91-25l113.94-168.45c6.16-9.11,6.17-24.03.02-33.15l-343.75-509.59c-3.08-4.56-7.13-6.84-11.18-6.84s-8.11,2.28-11.18,6.84l-343.75,509.59c-6.15,9.12-11.18,25.58-11.18,36.58v529.06c0,11-4.5,20-10,20s-10-9-10-20v-529.06c0-11,5-27.48,11.12-36.62L3073.82,23.65c3.06-4.57,7.09-6.86,11.12-6.86M3084.94,16.29c-4.39,0-8.48,2.51-11.54,7.08l-363.88,543.93c-6.18,9.23-11.21,25.79-11.21,36.9v529.06c0,11.3,4.71,20.5,10.5,20.5s10.5-9.2,10.5-20.5v-529.06c0-10.94,4.98-27.23,11.1-36.3l343.75-509.59c2.88-4.27,6.7-6.62,10.77-6.62s7.89,2.35,10.77,6.62l343.75,509.59c6.06,8.99,6.05,23.61-.02,32.59l-113.94,168.45-16.91,25c-3.27,4.84.54,15.25,8.5,23.21l322.43,322.43c3.86,3.86,7.53,5.98,10.34,5.98,2.96,0,4.65-2.31,4.65-6.33,0-7.91-6.41-20.76-14.29-28.64l-298.01-298.01c-7.64-7.64-8.97-21.16-2.97-30.14l121.13-181.33c6.23-9.32,6.22-24.49-.01-33.81L3096.48,23.37c-3.05-4.56-7.15-7.08-11.54-7.08h0Z"/>
        </g>
      </g>
      <g>
        <polygon class="cls-3" points="3770.34 584.55 3798.85 556.48 3827.66 585.3 3799 613.21 3770.34 584.55"/>
        <g>
          <path class="cls-2" d="M3802.4,1152.55c-2.49,0-3.92-3.05-3.92-8.37,0-10.18,5.05-25.91,11.26-35.08l343.69-507.38c6.13-9.05,6.15-23.8.04-32.87l-343.77-510.32c-6.19-9.18-11.22-24.41-11.22-33.94,0-6.55,2.29-7.53,3.66-7.53,2.17,0,4.99,2.41,7.92,6.8l363.88,543.93c6.18,9.24,6.19,24.29.01,33.53l-363.9,544.74c-2.8,4.19-5.51,6.49-7.65,6.49h0Z"/>
          <path class="cls-2" d="M3802.14,17.3c2,0,4.73,2.22,7.71,6.69l363.88,543.93c6.12,9.14,6.12,24.11.01,33.25l-363.9,544.74c-2.85,4.27-5.47,6.38-7.44,6.38-2.25,0-3.67-2.74-3.67-8.12,0-10.11,5.05-25.83,11.22-34.94l343.69-507.38c6.17-9.11,6.19-24.02.04-33.15l-343.77-510.32c-6.15-9.12-11.17-24.33-11.17-33.8,0-4.84,1.31-7.28,3.41-7.28M3802.14,16.8c-1.46,0-3.91,1.01-3.91,7.78,0,9.58,5.05,24.87,11.26,34.08l343.77,510.32c6.06,8.99,6.04,23.61-.04,32.59l-343.69,507.38c-6.23,9.2-11.3,25-11.3,35.22,0,7.5,2.61,8.62,4.17,8.62,2.25,0,4.97-2.28,7.85-6.6l363.9-544.74c6.23-9.32,6.22-24.49-.01-33.81L3810.27,23.71c-2.98-4.46-5.87-6.91-8.13-6.91h0Z"/>
        </g>
      </g>
    </g>
  </g>
</svg>