<?xml version="1.0" encoding="UTF-8"?>
<svg id="Layer_2" data-name="Layer 2" xmlns="http://www.w3.org/2000/svg" width="468.27" height="1158.7" viewBox="0 0 468.27 1158.7">
  <defs>
    <style>
      .cls-1, .cls-2 {
        stroke: #000;
        stroke-miterlimit: 10;
        stroke-width: 23px;
      }

      .cls-2 {
        fill: none;
      }
    </style>
  </defs>
  <g id="Layer_1-2" data-name="Layer 1">
    <g>
      <polygon class="cls-1" points="85.87 509.06 16.17 578.77 85.58 649.84 156.66 578.77 85.87 509.06"/>
      <g>
        <path d="M77.17,1139.08c0,10.11,5,10.89,11.11,1.75l363.9-544.74c6.11-9.15,6.11-24.11,0-33.26L88.28,18.08c-6.11-9.15-11.11-8.7-11.11,1s5.03,25.09,11.18,34.21l343.75,509.59c6.15,9.12,6.14,24.03-.02,33.15l-343.71,508.12c-6.16,9.11-11.21,24.84-11.21,34.94Z"/>
        <path class="cls-2" d="M77.17,1139.08c0,10.11,5,10.89,11.11,1.75l363.9-544.74c6.11-9.15,6.11-24.11,0-33.26L88.28,18.08c-6.11-9.15-11.11-8.7-11.11,1s5.03,25.09,11.18,34.21l343.75,509.59c6.15,9.12,6.14,24.03-.02,33.15l-343.71,508.12c-6.16,9.11-11.21,24.84-11.21,34.94Z"/>
      </g>
    </g>
  </g>
</svg>