<?xml version="1.0" encoding="UTF-8"?>
<svg id="Layer_2" data-name="Layer 2" xmlns="http://www.w3.org/2000/svg" width="760.88" height="1136.7" viewBox="0 0 760.88 1136.7">
  <defs>
    <style>
      .cls-1, .cls-2 {
        fill: #fff;
      }

      .cls-2 {
        stroke: #fff;
        stroke-miterlimit: 10;
        stroke-width: 20px;
      }
    </style>
  </defs>
  <g id="Layer_1-2" data-name="Layer 1">
    <g>
      <g>
        <path class="cls-1" d="M756.56,568.7c-5.59,0-15.18-7.49-21.39-16.69L391.42,42.42c-6.19-9.18-11.23-24.59-11.23-34.35,0-5.05,1.33-7.82,3.75-7.82,2.16,0,4.94,2.38,7.82,6.69l363.9,544.74c4.28,6.41,5.97,12.21,4.4,15.14-.66,1.23-1.87,1.88-3.5,1.88Z"/>
        <path class="cls-1" d="M383.94.5c1.99,0,4.67,2.18,7.61,6.58l363.9,544.74c6.11,9.15,6.61,16.63,1.11,16.63-5.5,0-15.03-7.46-21.18-16.58L391.63,42.28c-6.15-9.12-11.18-24.51-11.18-34.21,0-5.03,1.35-7.57,3.5-7.57M383.94,0c-1.49,0-4,1.05-4,8.07,0,9.8,5.06,25.28,11.27,34.49l343.75,509.59c6.25,9.26,15.94,16.8,21.6,16.8,1.73,0,3.02-.69,3.72-2.01,1.61-3.01-.08-8.91-4.41-15.4L391.97,6.8c-2.97-4.45-5.75-6.8-8.03-6.8h0Z"/>
      </g>
      <g>
        <path class="cls-1" d="M376.77,1136.45c-2.14,0-4.85-2.3-7.65-6.49L5.22,585.22c-4.28-6.41-5.97-12.21-4.4-15.14.66-1.23,1.87-1.87,3.5-1.87,5.59,0,15.19,7.48,21.41,16.68l343.71,508.12c6.2,9.17,11.25,24.91,11.25,35.08,0,5.32-1.43,8.37-3.92,8.37Z"/>
        <path class="cls-1" d="M4.32,568.45c5.5,0,15.04,7.45,21.21,16.57l343.71,508.12c6.16,9.11,11.21,24.84,11.21,34.94,0,5.39-1.42,8.12-3.67,8.12-1.97,0-4.59-2.11-7.44-6.38L5.43,585.08c-6.11-9.15-6.61-16.63-1.11-16.63M4.32,567.95c-1.73,0-3.02.69-3.72,2.01-1.61,3.01.08,8.91,4.41,15.4l363.9,544.74c2.88,4.32,5.6,6.6,7.86,6.6,1.56,0,4.17-1.12,4.17-8.62,0-10.22-5.07-26.02-11.29-35.22L25.94,584.74c-6.26-9.26-15.96-16.79-21.62-16.79h0Z"/>
      </g>
      <polygon class="cls-2" points="352.06 568.45 380.56 540.38 409.38 569.2 380.72 597.11 352.06 568.45"/>
    </g>
  </g>
</svg>