<?xml version="1.0" encoding="UTF-8"?>
<svg id="Layer_2" data-name="Layer 2" xmlns="http://www.w3.org/2000/svg" width="401.59" height="1156.99" viewBox="0 0 401.59 1156.99">
  <defs>
    <style>
      .cls-1 {
        fill: none;
        stroke: #000;
        stroke-miterlimit: 10;
        stroke-width: 22px;
      }
    </style>
  </defs>
  <g id="Layer_1-2" data-name="Layer 1">
    <g>
      <path d="M22.22,1102.93c-6.17,9.11-11.22,24.83-11.22,34.94s5,10.89,11.11,1.75l363.9-544.74c6.11-9.15,6.11-24.11-.01-33.25L22.12,17.69c-6.12-9.14-11.12-8.88-11.12.59s5.03,24.68,11.17,33.8l343.77,510.32c6.15,9.12,6.13,24.04-.04,33.15L22.22,1102.93Z"/>
      <path class="cls-1" d="M22.22,1102.93c-6.17,9.11-11.22,24.83-11.22,34.94s5,10.89,11.11,1.75l363.9-544.74c6.11-9.15,6.11-24.11-.01-33.25L22.12,17.69c-6.12-9.14-11.12-8.88-11.12.59s5.03,24.68,11.17,33.8l343.77,510.32c6.15,9.12,6.13,24.04-.04,33.15L22.22,1102.93Z"/>
    </g>
  </g>
</svg>